<?xml version="1.0" encoding="UTF-8" standalone="no"?><svg xmlns="http://www.w3.org/2000/svg" xmlns:xlink="http://www.w3.org/1999/xlink" contentStyleType="text/css" height="1315px" preserveAspectRatio="none" style="width:767px;height:1315px;background:#FFFFFF;" version="1.1" viewBox="0 0 767 1315" width="767px" zoomAndPan="magnify"><defs/><g><!--MD5=[552aa3c4729b92293c1c45102896c20f]
class Backgroundtile--><g id="elem_Backgroundtile"><rect codeLine="2" fill="#F1F1F1" height="86.1358" id="Backgroundtile" rx="2.5" ry="2.5" style="stroke:#181818;stroke-width:0.5;" width="238" x="244.5" y="1081.53"/><ellipse cx="308.25" cy="1097.53" fill="#ADD1B2" rx="11" ry="11" style="stroke:#181818;stroke-width:1.0;"/><path d="M307.7188,1104.4519 Q305.9688,1104.4519 304.8281,1103.7175 Q303.7031,1102.9675 303.1406,1101.6238 Q302.5938,1100.2644 302.5938,1098.4675 Q302.5938,1096.4363 303.25,1094.9831 Q303.9063,1093.53 305.1875,1092.7488 Q306.4688,1091.9675 308.3438,1091.9675 Q309.2344,1091.9675 309.9063,1092.155 Q310.5781,1092.3269 311.2656,1092.6706 L310.4531,1094.6863 Q309.8281,1094.3738 309.2813,1094.2488 Q308.75,1094.1238 308.2656,1094.1238 Q307.0938,1094.1238 306.3906,1094.655 Q305.6875,1095.1863 305.3906,1096.1394 Q305.0938,1097.0925 305.0938,1098.3581 Q305.0938,1100.3738 305.8125,1101.3425 Q306.5313,1102.2956 308.125,1102.2956 Q308.7188,1102.2956 309.3438,1102.1394 Q309.9688,1101.9831 310.7969,1101.6081 L310.7969,1103.8269 Q310.0625,1104.1394 309.2656,1104.2956 Q308.4844,1104.4519 307.7188,1104.4519 Z " fill="#000000"/><text fill="#000000" font-family="sans-serif" font-size="14" lengthAdjust="spacing" textLength="102" x="328.75" y="1102.962">Backgroundtile</text><line style="stroke:#181818;stroke-width:0.5;" x1="245.5" x2="481.5" y1="1113.53" y2="1113.53"/><ellipse cx="255.5" cy="1128.564" fill="none" rx="3" ry="3" style="stroke:#038048;stroke-width:1.0;"/><text fill="#000000" font-family="sans-serif" font-size="14" lengthAdjust="spacing" textLength="89" x="264.5" y="1132.4959">hitPoints : int</text><line style="stroke:#181818;stroke-width:0.5;" x1="245.5" x2="481.5" y1="1140.5979" y2="1140.5979"/><ellipse cx="255.5" cy="1155.6319" fill="#84BE84" rx="3" ry="3" style="stroke:#038048;stroke-width:1.0;"/><text fill="#000000" font-family="sans-serif" font-size="14" lengthAdjust="spacing" textLength="212" x="264.5" y="1159.5639">TakeDamage(damage:int) : void</text></g><!--MD5=[83b3cf3d23d77c6f1e1b5291a241bc2a]
class MonoBehaviour--><g id="elem_MonoBehaviour"><rect fill="#F1F1F1" height="48" id="MonoBehaviour" rx="2.5" ry="2.5" style="stroke:#181818;stroke-width:0.5;" width="138" x="7" y="624.6"/><ellipse cx="22" cy="640.6" fill="#ADD1B2" rx="11" ry="11" style="stroke:#181818;stroke-width:1.0;"/><path d="M21.4688,647.5219 Q19.7188,647.5219 18.5781,646.7875 Q17.4531,646.0375 16.8906,644.6938 Q16.3438,643.3344 16.3438,641.5375 Q16.3438,639.5063 17,638.0531 Q17.6563,636.6 18.9375,635.8188 Q20.2188,635.0375 22.0938,635.0375 Q22.9844,635.0375 23.6563,635.225 Q24.3281,635.3969 25.0156,635.7406 L24.2031,637.7563 Q23.5781,637.4438 23.0313,637.3188 Q22.5,637.1938 22.0156,637.1938 Q20.8438,637.1938 20.1406,637.725 Q19.4375,638.2563 19.1406,639.2094 Q18.8438,640.1625 18.8438,641.4281 Q18.8438,643.4438 19.5625,644.4125 Q20.2813,645.3656 21.875,645.3656 Q22.4688,645.3656 23.0938,645.2094 Q23.7188,645.0531 24.5469,644.6781 L24.5469,646.8969 Q23.8125,647.2094 23.0156,647.3656 Q22.2344,647.5219 21.4688,647.5219 Z " fill="#000000"/><text fill="#000000" font-family="sans-serif" font-size="14" lengthAdjust="spacing" textLength="106" x="36" y="646.032">MonoBehaviour</text><line style="stroke:#181818;stroke-width:0.5;" x1="8" x2="144" y1="656.6" y2="656.6"/><line style="stroke:#181818;stroke-width:0.5;" x1="8" x2="144" y1="664.6" y2="664.6"/></g><!--MD5=[85c2ed8dbf494cb60783de624603a7dd]
class Sprite--><g id="elem_Sprite"><rect fill="#F1F1F1" height="48" id="Sprite" rx="2.5" ry="2.5" style="stroke:#181818;stroke-width:0.5;" width="72" x="647" y="1111.6"/><ellipse cx="662" cy="1127.6" fill="#ADD1B2" rx="11" ry="11" style="stroke:#181818;stroke-width:1.0;"/><path d="M661.4688,1134.5219 Q659.7188,1134.5219 658.5781,1133.7875 Q657.4531,1133.0375 656.8906,1131.6938 Q656.3438,1130.3344 656.3438,1128.5375 Q656.3438,1126.5063 657,1125.0531 Q657.6563,1123.6 658.9375,1122.8188 Q660.2188,1122.0375 662.0938,1122.0375 Q662.9844,1122.0375 663.6563,1122.225 Q664.3281,1122.3969 665.0156,1122.7406 L664.2031,1124.7563 Q663.5781,1124.4438 663.0313,1124.3188 Q662.5,1124.1938 662.0156,1124.1938 Q660.8438,1124.1938 660.1406,1124.725 Q659.4375,1125.2563 659.1406,1126.2094 Q658.8438,1127.1625 658.8438,1128.4281 Q658.8438,1130.4438 659.5625,1131.4125 Q660.2813,1132.3656 661.875,1132.3656 Q662.4688,1132.3656 663.0938,1132.2094 Q663.7188,1132.0531 664.5469,1131.6781 L664.5469,1133.8969 Q663.8125,1134.2094 663.0156,1134.3656 Q662.2344,1134.5219 661.4688,1134.5219 Z " fill="#000000"/><text fill="#000000" font-family="sans-serif" font-size="14" lengthAdjust="spacing" textLength="40" x="676" y="1133.032">Sprite</text><line style="stroke:#181818;stroke-width:0.5;" x1="648" x2="718" y1="1143.6" y2="1143.6"/><line style="stroke:#181818;stroke-width:0.5;" x1="648" x2="718" y1="1151.6" y2="1151.6"/></g><!--MD5=[44604d3a5c21bada3eded4c753f938e5]
class CameraScalar--><g id="elem_CameraScalar"><rect codeLine="8" fill="#F1F1F1" height="105.2038" id="CameraScalar" rx="2.5" ry="2.5" style="stroke:#181818;stroke-width:0.5;" width="159" x="284" y="717"/><ellipse cx="314.3" cy="733" fill="#ADD1B2" rx="11" ry="11" style="stroke:#181818;stroke-width:1.0;"/><path d="M313.7688,739.9219 Q312.0188,739.9219 310.8781,739.1875 Q309.7531,738.4375 309.1906,737.0938 Q308.6438,735.7344 308.6438,733.9375 Q308.6438,731.9063 309.3,730.4531 Q309.9563,729 311.2375,728.2188 Q312.5188,727.4375 314.3938,727.4375 Q315.2844,727.4375 315.9563,727.625 Q316.6281,727.7969 317.3156,728.1406 L316.5031,730.1563 Q315.8781,729.8438 315.3313,729.7188 Q314.8,729.5938 314.3156,729.5938 Q313.1438,729.5938 312.4406,730.125 Q311.7375,730.6563 311.4406,731.6094 Q311.1438,732.5625 311.1438,733.8281 Q311.1438,735.8438 311.8625,736.8125 Q312.5813,737.7656 314.175,737.7656 Q314.7688,737.7656 315.3938,737.6094 Q316.0188,737.4531 316.8469,737.0781 L316.8469,739.2969 Q316.1125,739.6094 315.3156,739.7656 Q314.5344,739.9219 313.7688,739.9219 Z " fill="#000000"/><text fill="#000000" font-family="sans-serif" font-size="14" lengthAdjust="spacing" textLength="93" x="331.7" y="738.432">CameraScalar</text><line style="stroke:#181818;stroke-width:0.5;" x1="285" x2="442" y1="749" y2="749"/><ellipse cx="295" cy="764.034" fill="none" rx="3" ry="3" style="stroke:#038048;stroke-width:1.0;"/><text fill="#000000" font-family="sans-serif" font-size="14" lengthAdjust="spacing" textLength="133" x="304" y="767.9659">cameraOffset : float</text><ellipse cx="295" cy="783.1019" fill="none" rx="3" ry="3" style="stroke:#038048;stroke-width:1.0;"/><text fill="#000000" font-family="sans-serif" font-size="14" lengthAdjust="spacing" textLength="123" x="304" y="787.0339">padding : float = 2</text><ellipse cx="295" cy="802.1698" fill="none" rx="3" ry="3" style="stroke:#038048;stroke-width:1.0;"/><text fill="#000000" font-family="sans-serif" font-size="14" lengthAdjust="spacing" textLength="114" x="304" y="806.1018">yOffset : float = 1</text><line style="stroke:#181818;stroke-width:0.5;" x1="285" x2="442" y1="814.2038" y2="814.2038"/></g><!--MD5=[42fc56340decc66cd27f57a6fafaf26c]
class FadePanelController--><g id="elem_FadePanelController"><rect codeLine="14" fill="#F1F1F1" height="67.0679" id="FadePanelController" rx="2.5" ry="2.5" style="stroke:#181818;stroke-width:0.5;" width="168" x="279.5" y="615.06"/><ellipse cx="294.5" cy="631.06" fill="#ADD1B2" rx="11" ry="11" style="stroke:#181818;stroke-width:1.0;"/><path d="M293.9688,637.9819 Q292.2188,637.9819 291.0781,637.2475 Q289.9531,636.4975 289.3906,635.1538 Q288.8438,633.7944 288.8438,631.9975 Q288.8438,629.9663 289.5,628.5131 Q290.1563,627.06 291.4375,626.2788 Q292.7188,625.4975 294.5938,625.4975 Q295.4844,625.4975 296.1563,625.685 Q296.8281,625.8569 297.5156,626.2006 L296.7031,628.2163 Q296.0781,627.9038 295.5313,627.7788 Q295,627.6538 294.5156,627.6538 Q293.3438,627.6538 292.6406,628.185 Q291.9375,628.7163 291.6406,629.6694 Q291.3438,630.6225 291.3438,631.8881 Q291.3438,633.9038 292.0625,634.8725 Q292.7813,635.8256 294.375,635.8256 Q294.9688,635.8256 295.5938,635.6694 Q296.2188,635.5131 297.0469,635.1381 L297.0469,637.3569 Q296.3125,637.6694 295.5156,637.8256 Q294.7344,637.9819 293.9688,637.9819 Z " fill="#000000"/><text fill="#000000" font-family="sans-serif" font-size="14" lengthAdjust="spacing" textLength="136" x="308.5" y="636.492">FadePanelController</text><line style="stroke:#181818;stroke-width:0.5;" x1="280.5" x2="446.5" y1="647.06" y2="647.06"/><line style="stroke:#181818;stroke-width:0.5;" x1="280.5" x2="446.5" y1="655.06" y2="655.06"/><ellipse cx="290.5" cy="670.094" fill="#84BE84" rx="3" ry="3" style="stroke:#038048;stroke-width:1.0;"/><text fill="#000000" font-family="sans-serif" font-size="14" lengthAdjust="spacing" textLength="68" x="299.5" y="674.0259">OK() : void</text></g><!--MD5=[8b805049d0499e23d33da8a1efc9f54d]
class Animator--><g id="elem_Animator"><rect fill="#F1F1F1" height="48" id="Animator" rx="2.5" ry="2.5" style="stroke:#181818;stroke-width:0.5;" width="94" x="636" y="626.6"/><ellipse cx="651" cy="642.6" fill="#ADD1B2" rx="11" ry="11" style="stroke:#181818;stroke-width:1.0;"/><path d="M650.4688,649.5219 Q648.7188,649.5219 647.5781,648.7875 Q646.4531,648.0375 645.8906,646.6938 Q645.3438,645.3344 645.3438,643.5375 Q645.3438,641.5063 646,640.0531 Q646.6563,638.6 647.9375,637.8188 Q649.2188,637.0375 651.0938,637.0375 Q651.9844,637.0375 652.6563,637.225 Q653.3281,637.3969 654.0156,637.7406 L653.2031,639.7563 Q652.5781,639.4438 652.0313,639.3188 Q651.5,639.1938 651.0156,639.1938 Q649.8438,639.1938 649.1406,639.725 Q648.4375,640.2563 648.1406,641.2094 Q647.8438,642.1625 647.8438,643.4281 Q647.8438,645.4438 648.5625,646.4125 Q649.2813,647.3656 650.875,647.3656 Q651.4688,647.3656 652.0938,647.2094 Q652.7188,647.0531 653.5469,646.6781 L653.5469,648.8969 Q652.8125,649.2094 652.0156,649.3656 Q651.2344,649.5219 650.4688,649.5219 Z " fill="#000000"/><text fill="#000000" font-family="sans-serif" font-size="14" lengthAdjust="spacing" textLength="62" x="665" y="648.032">Animator</text><line style="stroke:#181818;stroke-width:0.5;" x1="637" x2="729" y1="658.6" y2="658.6"/><line style="stroke:#181818;stroke-width:0.5;" x1="637" x2="729" y1="666.6" y2="666.6"/></g><!--MD5=[05da6f9c3b20afe1900b3e9902dc36dd]
class FindMatches--><g id="elem_FindMatches"><rect codeLine="20" fill="#F1F1F1" height="105.2038" id="FindMatches" rx="2.5" ry="2.5" style="stroke:#181818;stroke-width:0.5;" width="286" x="220.5" y="7"/><ellipse cx="316.25" cy="23" fill="#ADD1B2" rx="11" ry="11" style="stroke:#181818;stroke-width:1.0;"/><path d="M315.7188,29.9219 Q313.9688,29.9219 312.8281,29.1875 Q311.7031,28.4375 311.1406,27.0938 Q310.5938,25.7344 310.5938,23.9375 Q310.5938,21.9063 311.25,20.4531 Q311.9063,19 313.1875,18.2188 Q314.4688,17.4375 316.3438,17.4375 Q317.2344,17.4375 317.9063,17.625 Q318.5781,17.7969 319.2656,18.1406 L318.4531,20.1563 Q317.8281,19.8438 317.2813,19.7188 Q316.75,19.5938 316.2656,19.5938 Q315.0938,19.5938 314.3906,20.125 Q313.6875,20.6563 313.3906,21.6094 Q313.0938,22.5625 313.0938,23.8281 Q313.0938,25.8438 313.8125,26.8125 Q314.5313,27.7656 316.125,27.7656 Q316.7188,27.7656 317.3438,27.6094 Q317.9688,27.4531 318.7969,27.0781 L318.7969,29.2969 Q318.0625,29.6094 317.2656,29.7656 Q316.4844,29.9219 315.7188,29.9219 Z " fill="#000000"/><text fill="#000000" font-family="sans-serif" font-size="14" lengthAdjust="spacing" textLength="86" x="336.75" y="28.432">FindMatches</text><line style="stroke:#181818;stroke-width:0.5;" x1="221.5" x2="505.5" y1="39" y2="39"/><line style="stroke:#181818;stroke-width:0.5;" x1="221.5" x2="505.5" y1="47" y2="47"/><ellipse cx="231.5" cy="62.034" fill="#84BE84" rx="3" ry="3" style="stroke:#038048;stroke-width:1.0;"/><text fill="#000000" font-family="sans-serif" font-size="14" lengthAdjust="spacing" textLength="151" x="240.5" y="65.9659">FindAllMatches() : void</text><ellipse cx="231.5" cy="81.1019" fill="#84BE84" rx="3" ry="3" style="stroke:#038048;stroke-width:1.0;"/><text fill="#000000" font-family="sans-serif" font-size="14" lengthAdjust="spacing" textLength="260" x="240.5" y="85.0339">MatchPiecesOfColor(color:string) : void</text><ellipse cx="231.5" cy="100.1698" fill="#84BE84" rx="3" ry="3" style="stroke:#038048;stroke-width:1.0;"/><text fill="#000000" font-family="sans-serif" font-size="14" lengthAdjust="spacing" textLength="134" x="240.5" y="104.1018">CheckBombs() : void</text></g><!--MD5=[e644022de7dea015dd09463c37421447]
class List`1--><g id="elem_List`1"><rect codeLine="25" fill="#F1F1F1" height="48" id="List`1" rx="2.5" ry="2.5" style="stroke:#181818;stroke-width:0.5;" width="77" x="325" y="167.6"/><ellipse cx="340" cy="183.6" fill="#ADD1B2" rx="11" ry="11" style="stroke:#181818;stroke-width:1.0;"/><path d="M339.4688,190.5219 Q337.7188,190.5219 336.5781,189.7875 Q335.4531,189.0375 334.8906,187.6938 Q334.3438,186.3344 334.3438,184.5375 Q334.3438,182.5063 335,181.0531 Q335.6563,179.6 336.9375,178.8188 Q338.2188,178.0375 340.0938,178.0375 Q340.9844,178.0375 341.6563,178.225 Q342.3281,178.3969 343.0156,178.7406 L342.2031,180.7563 Q341.5781,180.4438 341.0313,180.3188 Q340.5,180.1938 340.0156,180.1938 Q338.8438,180.1938 338.1406,180.725 Q337.4375,181.2563 337.1406,182.2094 Q336.8438,183.1625 336.8438,184.4281 Q336.8438,186.4438 337.5625,187.4125 Q338.2813,188.3656 339.875,188.3656 Q340.4688,188.3656 341.0938,188.2094 Q341.7188,188.0531 342.5469,187.6781 L342.5469,189.8969 Q341.8125,190.2094 341.0156,190.3656 Q340.2344,190.5219 339.4688,190.5219 Z " fill="#000000"/><text fill="#000000" font-family="sans-serif" font-size="14" lengthAdjust="spacing" textLength="35" x="354" y="189.032">List`1</text><rect fill="#FFFFFF" height="18.3441" style="stroke:#181818;stroke-width:1.0;stroke-dasharray:2.0,2.0;" width="8" x="397" y="164.6"/><text fill="#000000" font-family="sans-serif" font-size="12" font-style="italic" lengthAdjust="spacing" textLength="6" x="398" y="178.4281">T</text><line style="stroke:#181818;stroke-width:0.5;" x1="326" x2="401" y1="199.6" y2="199.6"/><line style="stroke:#181818;stroke-width:0.5;" x1="326" x2="401" y1="207.6" y2="207.6"/></g><!--MD5=[ddd33a29ea908bbaf2af30a135364761]
class BlankGoal--><g id="elem_BlankGoal"><rect codeLine="29" fill="#F1F1F1" height="105.2038" id="BlankGoal" rx="2.5" ry="2.5" style="stroke:#181818;stroke-width:0.5;" width="172" x="277.5" y="1203"/><ellipse cx="325.75" cy="1219" fill="#ADD1B2" rx="11" ry="11" style="stroke:#181818;stroke-width:1.0;"/><path d="M325.2188,1225.9219 Q323.4688,1225.9219 322.3281,1225.1875 Q321.2031,1224.4375 320.6406,1223.0938 Q320.0938,1221.7344 320.0938,1219.9375 Q320.0938,1217.9063 320.75,1216.4531 Q321.4063,1215 322.6875,1214.2188 Q323.9688,1213.4375 325.8438,1213.4375 Q326.7344,1213.4375 327.4063,1213.625 Q328.0781,1213.7969 328.7656,1214.1406 L327.9531,1216.1563 Q327.3281,1215.8438 326.7813,1215.7188 Q326.25,1215.5938 325.7656,1215.5938 Q324.5938,1215.5938 323.8906,1216.125 Q323.1875,1216.6563 322.8906,1217.6094 Q322.5938,1218.5625 322.5938,1219.8281 Q322.5938,1221.8438 323.3125,1222.8125 Q324.0313,1223.7656 325.625,1223.7656 Q326.2188,1223.7656 326.8438,1223.6094 Q327.4688,1223.4531 328.2969,1223.0781 L328.2969,1225.2969 Q327.5625,1225.6094 326.7656,1225.7656 Q325.9844,1225.9219 325.2188,1225.9219 Z " fill="#000000"/><text fill="#000000" font-family="sans-serif" font-size="14" lengthAdjust="spacing" textLength="67" x="346.25" y="1224.432">BlankGoal</text><line style="stroke:#181818;stroke-width:0.5;" x1="278.5" x2="448.5" y1="1235" y2="1235"/><ellipse cx="288.5" cy="1250.034" fill="none" rx="3" ry="3" style="stroke:#038048;stroke-width:1.0;"/><text fill="#000000" font-family="sans-serif" font-size="14" lengthAdjust="spacing" textLength="137" x="297.5" y="1253.9659">numberNeeded : int</text><ellipse cx="288.5" cy="1269.1019" fill="none" rx="3" ry="3" style="stroke:#038048;stroke-width:1.0;"/><text fill="#000000" font-family="sans-serif" font-size="14" lengthAdjust="spacing" textLength="146" x="297.5" y="1273.0339">numberCollected : int</text><ellipse cx="288.5" cy="1288.1698" fill="none" rx="3" ry="3" style="stroke:#038048;stroke-width:1.0;"/><text fill="#000000" font-family="sans-serif" font-size="14" lengthAdjust="spacing" textLength="131" x="297.5" y="1292.1018">matchValue : string</text><line style="stroke:#181818;stroke-width:0.5;" x1="278.5" x2="448.5" y1="1300.2038" y2="1300.2038"/></g><!--MD5=[fdfebd4502680b951c53d3889be98448]
class GoalManager--><g id="elem_GoalManager"><rect codeLine="34" fill="#F1F1F1" height="48" id="GoalManager" rx="2.5" ry="2.5" style="stroke:#181818;stroke-width:0.5;" width="123" x="302" y="391.6"/><ellipse cx="317" cy="407.6" fill="#ADD1B2" rx="11" ry="11" style="stroke:#181818;stroke-width:1.0;"/><path d="M316.4688,414.5219 Q314.7188,414.5219 313.5781,413.7875 Q312.4531,413.0375 311.8906,411.6938 Q311.3438,410.3344 311.3438,408.5375 Q311.3438,406.5063 312,405.0531 Q312.6563,403.6 313.9375,402.8188 Q315.2188,402.0375 317.0938,402.0375 Q317.9844,402.0375 318.6563,402.225 Q319.3281,402.3969 320.0156,402.7406 L319.2031,404.7563 Q318.5781,404.4438 318.0313,404.3188 Q317.5,404.1938 317.0156,404.1938 Q315.8438,404.1938 315.1406,404.725 Q314.4375,405.2563 314.1406,406.2094 Q313.8438,407.1625 313.8438,408.4281 Q313.8438,410.4438 314.5625,411.4125 Q315.2813,412.3656 316.875,412.3656 Q317.4688,412.3656 318.0938,412.2094 Q318.7188,412.0531 319.5469,411.6781 L319.5469,413.8969 Q318.8125,414.2094 318.0156,414.3656 Q317.2344,414.5219 316.4688,414.5219 Z " fill="#000000"/><text fill="#000000" font-family="sans-serif" font-size="14" lengthAdjust="spacing" textLength="91" x="331" y="413.032">GoalManager</text><line style="stroke:#181818;stroke-width:0.5;" x1="303" x2="424" y1="423.6" y2="423.6"/><line style="stroke:#181818;stroke-width:0.5;" x1="303" x2="424" y1="431.6" y2="431.6"/></g><!--MD5=[064f7a74fee85463ec1a30143664ee17]
class GameObject--><g id="elem_GameObject"><rect fill="#F1F1F1" height="48" id="GameObject" rx="2.5" ry="2.5" style="stroke:#181818;stroke-width:0.5;" width="115" x="625.5" y="380.6"/><ellipse cx="640.5" cy="396.6" fill="#ADD1B2" rx="11" ry="11" style="stroke:#181818;stroke-width:1.0;"/><path d="M639.9688,403.5219 Q638.2188,403.5219 637.0781,402.7875 Q635.9531,402.0375 635.3906,400.6938 Q634.8438,399.3344 634.8438,397.5375 Q634.8438,395.5063 635.5,394.0531 Q636.1563,392.6 637.4375,391.8188 Q638.7188,391.0375 640.5938,391.0375 Q641.4844,391.0375 642.1563,391.225 Q642.8281,391.3969 643.5156,391.7406 L642.7031,393.7563 Q642.0781,393.4438 641.5313,393.3188 Q641,393.1938 640.5156,393.1938 Q639.3438,393.1938 638.6406,393.725 Q637.9375,394.2563 637.6406,395.2094 Q637.3438,396.1625 637.3438,397.4281 Q637.3438,399.4438 638.0625,400.4125 Q638.7813,401.3656 640.375,401.3656 Q640.9688,401.3656 641.5938,401.2094 Q642.2188,401.0531 643.0469,400.6781 L643.0469,402.8969 Q642.3125,403.2094 641.5156,403.3656 Q640.7344,403.5219 639.9688,403.5219 Z " fill="#000000"/><text fill="#000000" font-family="sans-serif" font-size="14" lengthAdjust="spacing" textLength="83" x="654.5" y="402.032">GameObject</text><line style="stroke:#181818;stroke-width:0.5;" x1="626.5" x2="739.5" y1="412.6" y2="412.6"/><line style="stroke:#181818;stroke-width:0.5;" x1="626.5" x2="739.5" y1="420.6" y2="420.6"/></g><!--MD5=[f7784af2c11a664045dd9dab78be5493]
class GoalPanel--><g id="elem_GoalPanel"><rect codeLine="41" fill="#F1F1F1" height="67.0679" id="GoalPanel" rx="2.5" ry="2.5" style="stroke:#181818;stroke-width:0.5;" width="144" x="291.5" y="979.06"/><ellipse cx="326.75" cy="995.06" fill="#ADD1B2" rx="11" ry="11" style="stroke:#181818;stroke-width:1.0;"/><path d="M326.2188,1001.9819 Q324.4688,1001.9819 323.3281,1001.2475 Q322.2031,1000.4975 321.6406,999.1538 Q321.0938,997.7944 321.0938,995.9975 Q321.0938,993.9663 321.75,992.5131 Q322.4063,991.06 323.6875,990.2788 Q324.9688,989.4975 326.8438,989.4975 Q327.7344,989.4975 328.4063,989.685 Q329.0781,989.8569 329.7656,990.2006 L328.9531,992.2163 Q328.3281,991.9038 327.7813,991.7788 Q327.25,991.6538 326.7656,991.6538 Q325.5938,991.6538 324.8906,992.185 Q324.1875,992.7163 323.8906,993.6694 Q323.5938,994.6225 323.5938,995.8881 Q323.5938,997.9038 324.3125,998.8725 Q325.0313,999.8256 326.625,999.8256 Q327.2188,999.8256 327.8438,999.6694 Q328.4688,999.5131 329.2969,999.1381 L329.2969,1001.3569 Q328.5625,1001.6694 327.7656,1001.8256 Q326.9844,1001.9819 326.2188,1001.9819 Z " fill="#000000"/><text fill="#000000" font-family="sans-serif" font-size="14" lengthAdjust="spacing" textLength="67" x="345.25" y="1000.492">GoalPanel</text><line style="stroke:#181818;stroke-width:0.5;" x1="292.5" x2="434.5" y1="1011.06" y2="1011.06"/><ellipse cx="302.5" cy="1026.094" fill="none" rx="3" ry="3" style="stroke:#038048;stroke-width:1.0;"/><text fill="#000000" font-family="sans-serif" font-size="14" lengthAdjust="spacing" textLength="118" x="311.5" y="1030.0259">thisString : string</text><line style="stroke:#181818;stroke-width:0.5;" x1="292.5" x2="434.5" y1="1038.1279" y2="1038.1279"/></g><!--MD5=[964f074a2dd77d134c21b891bb53e381]
class Image--><g id="elem_Image"><rect fill="#F1F1F1" height="48" id="Image" rx="2.5" ry="2.5" style="stroke:#181818;stroke-width:0.5;" width="75" x="645.5" y="865.6"/><ellipse cx="660.5" cy="881.6" fill="#ADD1B2" rx="11" ry="11" style="stroke:#181818;stroke-width:1.0;"/><path d="M659.9688,888.5219 Q658.2188,888.5219 657.0781,887.7875 Q655.9531,887.0375 655.3906,885.6938 Q654.8438,884.3344 654.8438,882.5375 Q654.8438,880.5063 655.5,879.0531 Q656.1563,877.6 657.4375,876.8188 Q658.7188,876.0375 660.5938,876.0375 Q661.4844,876.0375 662.1563,876.225 Q662.8281,876.3969 663.5156,876.7406 L662.7031,878.7563 Q662.0781,878.4438 661.5313,878.3188 Q661,878.1938 660.5156,878.1938 Q659.3438,878.1938 658.6406,878.725 Q657.9375,879.2563 657.6406,880.2094 Q657.3438,881.1625 657.3438,882.4281 Q657.3438,884.4438 658.0625,885.4125 Q658.7813,886.3656 660.375,886.3656 Q660.9688,886.3656 661.5938,886.2094 Q662.2188,886.0531 663.0469,885.6781 L663.0469,887.8969 Q662.3125,888.2094 661.5156,888.3656 Q660.7344,888.5219 659.9688,888.5219 Z " fill="#000000"/><text fill="#000000" font-family="sans-serif" font-size="14" lengthAdjust="spacing" textLength="43" x="674.5" y="887.032">Image</text><line style="stroke:#181818;stroke-width:0.5;" x1="646.5" x2="719.5" y1="897.6" y2="897.6"/><line style="stroke:#181818;stroke-width:0.5;" x1="646.5" x2="719.5" y1="905.6" y2="905.6"/></g><!--MD5=[904907aec70c3817983bd27a243dd750]
class TextMeshProUGUI--><g id="elem_TextMeshProUGUI"><rect fill="#F1F1F1" height="48" id="TextMeshProUGUI" rx="2.5" ry="2.5" style="stroke:#181818;stroke-width:0.5;" width="154" x="606" y="988.6"/><ellipse cx="621" cy="1004.6" fill="#ADD1B2" rx="11" ry="11" style="stroke:#181818;stroke-width:1.0;"/><path d="M620.4688,1011.5219 Q618.7188,1011.5219 617.5781,1010.7875 Q616.4531,1010.0375 615.8906,1008.6938 Q615.3438,1007.3344 615.3438,1005.5375 Q615.3438,1003.5063 616,1002.0531 Q616.6563,1000.6 617.9375,999.8188 Q619.2188,999.0375 621.0938,999.0375 Q621.9844,999.0375 622.6563,999.225 Q623.3281,999.3969 624.0156,999.7406 L623.2031,1001.7563 Q622.5781,1001.4438 622.0313,1001.3188 Q621.5,1001.1938 621.0156,1001.1938 Q619.8438,1001.1938 619.1406,1001.725 Q618.4375,1002.2563 618.1406,1003.2094 Q617.8438,1004.1625 617.8438,1005.4281 Q617.8438,1007.4438 618.5625,1008.4125 Q619.2813,1009.3656 620.875,1009.3656 Q621.4688,1009.3656 622.0938,1009.2094 Q622.7188,1009.0531 623.5469,1008.6781 L623.5469,1010.8969 Q622.8125,1011.2094 622.0156,1011.3656 Q621.2344,1011.5219 620.4688,1011.5219 Z " fill="#000000"/><text fill="#000000" font-family="sans-serif" font-size="14" lengthAdjust="spacing" textLength="122" x="635" y="1010.032">TextMeshProUGUI</text><line style="stroke:#181818;stroke-width:0.5;" x1="607" x2="759" y1="1020.6" y2="1020.6"/><line style="stroke:#181818;stroke-width:0.5;" x1="607" x2="759" y1="1028.6" y2="1028.6"/></g><!--MD5=[da56f9b2a468c68dd7ea9c1e1a0391f9]
class HintManager--><g id="elem_HintManager"><rect codeLine="48" fill="#F1F1F1" height="86.1358" id="HintManager" rx="2.5" ry="2.5" style="stroke:#181818;stroke-width:0.5;" width="153" x="287" y="270.53"/><ellipse cx="316.4" cy="286.53" fill="#ADD1B2" rx="11" ry="11" style="stroke:#181818;stroke-width:1.0;"/><path d="M315.8688,293.4519 Q314.1188,293.4519 312.9781,292.7175 Q311.8531,291.9675 311.2906,290.6238 Q310.7438,289.2644 310.7438,287.4675 Q310.7438,285.4363 311.4,283.9831 Q312.0563,282.53 313.3375,281.7488 Q314.6188,280.9675 316.4938,280.9675 Q317.3844,280.9675 318.0563,281.155 Q318.7281,281.3269 319.4156,281.6706 L318.6031,283.6863 Q317.9781,283.3738 317.4313,283.2488 Q316.9,283.1238 316.4156,283.1238 Q315.2438,283.1238 314.5406,283.655 Q313.8375,284.1863 313.5406,285.1394 Q313.2438,286.0925 313.2438,287.3581 Q313.2438,289.3738 313.9625,290.3425 Q314.6813,291.2956 316.275,291.2956 Q316.8688,291.2956 317.4938,291.1394 Q318.1188,290.9831 318.9469,290.6081 L318.9469,292.8269 Q318.2125,293.1394 317.4156,293.2956 Q316.6344,293.4519 315.8688,293.4519 Z " fill="#000000"/><text fill="#000000" font-family="sans-serif" font-size="14" lengthAdjust="spacing" textLength="89" x="333.6" y="291.962">HintManager</text><line style="stroke:#181818;stroke-width:0.5;" x1="288" x2="439" y1="302.53" y2="302.53"/><ellipse cx="298" cy="317.564" fill="none" rx="3" ry="3" style="stroke:#038048;stroke-width:1.0;"/><text fill="#000000" font-family="sans-serif" font-size="14" lengthAdjust="spacing" textLength="106" x="307" y="321.4959">hintDelay : float</text><line style="stroke:#181818;stroke-width:0.5;" x1="288" x2="439" y1="329.5979" y2="329.5979"/><ellipse cx="298" cy="344.6319" fill="#84BE84" rx="3" ry="3" style="stroke:#038048;stroke-width:1.0;"/><text fill="#000000" font-family="sans-serif" font-size="14" lengthAdjust="spacing" textLength="127" x="307" y="348.5639">DestroyHint() : void</text></g><!--MD5=[e3f5fbf4ab5d53f045a2fcc8c46ec0f8]
class ScoreManager--><g id="elem_ScoreManager"><rect codeLine="55" fill="#F1F1F1" height="86.1358" id="ScoreManager" rx="2.5" ry="2.5" style="stroke:#181818;stroke-width:0.5;" width="317" x="205" y="857.53"/><ellipse cx="310.25" cy="873.53" fill="#ADD1B2" rx="11" ry="11" style="stroke:#181818;stroke-width:1.0;"/><path d="M309.7188,880.4519 Q307.9688,880.4519 306.8281,879.7175 Q305.7031,878.9675 305.1406,877.6238 Q304.5938,876.2644 304.5938,874.4675 Q304.5938,872.4363 305.25,870.9831 Q305.9063,869.53 307.1875,868.7488 Q308.4688,867.9675 310.3438,867.9675 Q311.2344,867.9675 311.9063,868.155 Q312.5781,868.3269 313.2656,868.6706 L312.4531,870.6863 Q311.8281,870.3738 311.2813,870.2488 Q310.75,870.1238 310.2656,870.1238 Q309.0938,870.1238 308.3906,870.655 Q307.6875,871.1863 307.3906,872.1394 Q307.0938,873.0925 307.0938,874.3581 Q307.0938,876.3738 307.8125,877.3425 Q308.5313,878.2956 310.125,878.2956 Q310.7188,878.2956 311.3438,878.1394 Q311.9688,877.9831 312.7969,877.6081 L312.7969,879.8269 Q312.0625,880.1394 311.2656,880.2956 Q310.4844,880.4519 309.7188,880.4519 Z " fill="#000000"/><text fill="#000000" font-family="sans-serif" font-size="14" lengthAdjust="spacing" textLength="98" x="330.75" y="878.962">ScoreManager</text><line style="stroke:#181818;stroke-width:0.5;" x1="206" x2="521" y1="889.53" y2="889.53"/><ellipse cx="216" cy="904.564" fill="none" rx="3" ry="3" style="stroke:#038048;stroke-width:1.0;"/><text fill="#000000" font-family="sans-serif" font-size="14" lengthAdjust="spacing" textLength="66" x="225" y="908.4959">score : int</text><line style="stroke:#181818;stroke-width:0.5;" x1="206" x2="521" y1="916.5979" y2="916.5979"/><ellipse cx="216" cy="931.6319" fill="#84BE84" rx="3" ry="3" style="stroke:#038048;stroke-width:1.0;"/><text fill="#000000" font-family="sans-serif" font-size="14" lengthAdjust="spacing" textLength="291" x="225" y="935.5639">IncreaseScore(amountToIncrease:int) : void</text></g><!--MD5=[3b66e3a12dd87bd1486b74e8ddc236cd]
class SoundManager--><g id="elem_SoundManager"><rect codeLine="62" fill="#F1F1F1" height="105.2038" id="SoundManager" rx="2.5" ry="2.5" style="stroke:#181818;stroke-width:0.5;" width="246" x="240.5" y="475"/><ellipse cx="307.25" cy="491" fill="#ADD1B2" rx="11" ry="11" style="stroke:#181818;stroke-width:1.0;"/><path d="M306.7188,497.9219 Q304.9688,497.9219 303.8281,497.1875 Q302.7031,496.4375 302.1406,495.0938 Q301.5938,493.7344 301.5938,491.9375 Q301.5938,489.9063 302.25,488.4531 Q302.9063,487 304.1875,486.2188 Q305.4688,485.4375 307.3438,485.4375 Q308.2344,485.4375 308.9063,485.625 Q309.5781,485.7969 310.2656,486.1406 L309.4531,488.1563 Q308.8281,487.8438 308.2813,487.7188 Q307.75,487.5938 307.2656,487.5938 Q306.0938,487.5938 305.3906,488.125 Q304.6875,488.6563 304.3906,489.6094 Q304.0938,490.5625 304.0938,491.8281 Q304.0938,493.8438 304.8125,494.8125 Q305.5313,495.7656 307.125,495.7656 Q307.7188,495.7656 308.3438,495.6094 Q308.9688,495.4531 309.7969,495.0781 L309.7969,497.2969 Q309.0625,497.6094 308.2656,497.7656 Q307.4844,497.9219 306.7188,497.9219 Z " fill="#000000"/><text fill="#000000" font-family="sans-serif" font-size="14" lengthAdjust="spacing" textLength="104" x="327.75" y="496.432">SoundManager</text><line style="stroke:#181818;stroke-width:0.5;" x1="241.5" x2="485.5" y1="507" y2="507"/><line style="stroke:#181818;stroke-width:0.5;" x1="241.5" x2="485.5" y1="515" y2="515"/><ellipse cx="251.5" cy="530.034" fill="#84BE84" rx="3" ry="3" style="stroke:#038048;stroke-width:1.0;"/><text fill="#000000" font-family="sans-serif" font-size="14" lengthAdjust="spacing" textLength="80" x="260.5" y="533.9659">Start() : void</text><ellipse cx="251.5" cy="549.1019" fill="#84BE84" rx="3" ry="3" style="stroke:#038048;stroke-width:1.0;"/><text fill="#000000" font-family="sans-serif" font-size="14" lengthAdjust="spacing" textLength="97" x="260.5" y="553.0339">Update() : void</text><ellipse cx="251.5" cy="568.1698" fill="#84BE84" rx="3" ry="3" style="stroke:#038048;stroke-width:1.0;"/><text fill="#000000" font-family="sans-serif" font-size="14" lengthAdjust="spacing" textLength="220" x="260.5" y="572.1018">PlayRandomDestroyNoise() : void</text></g><!--MD5=[1dcb072468b0d7732dfb17a5d7634985]
class AudioSource--><g id="elem_AudioSource"><rect fill="#F1F1F1" height="48" id="AudioSource" rx="2.5" ry="2.5" style="stroke:#181818;stroke-width:0.5;" width="117" x="624.5" y="503.6"/><ellipse cx="639.5" cy="519.6" fill="#ADD1B2" rx="11" ry="11" style="stroke:#181818;stroke-width:1.0;"/><path d="M638.9688,526.5219 Q637.2188,526.5219 636.0781,525.7875 Q634.9531,525.0375 634.3906,523.6938 Q633.8438,522.3344 633.8438,520.5375 Q633.8438,518.5063 634.5,517.0531 Q635.1563,515.6 636.4375,514.8188 Q637.7188,514.0375 639.5938,514.0375 Q640.4844,514.0375 641.1563,514.225 Q641.8281,514.3969 642.5156,514.7406 L641.7031,516.7563 Q641.0781,516.4438 640.5313,516.3188 Q640,516.1938 639.5156,516.1938 Q638.3438,516.1938 637.6406,516.725 Q636.9375,517.2563 636.6406,518.2094 Q636.3438,519.1625 636.3438,520.4281 Q636.3438,522.4438 637.0625,523.4125 Q637.7813,524.3656 639.375,524.3656 Q639.9688,524.3656 640.5938,524.2094 Q641.2188,524.0531 642.0469,523.6781 L642.0469,525.8969 Q641.3125,526.2094 640.5156,526.3656 Q639.7344,526.5219 638.9688,526.5219 Z " fill="#000000"/><text fill="#000000" font-family="sans-serif" font-size="14" lengthAdjust="spacing" textLength="85" x="653.5" y="525.032">AudioSource</text><line style="stroke:#181818;stroke-width:0.5;" x1="625.5" x2="740.5" y1="535.6" y2="535.6"/><line style="stroke:#181818;stroke-width:0.5;" x1="625.5" x2="740.5" y1="543.6" y2="543.6"/></g><!--MD5=[751b67d46bd37f27f961bc2daa454d6d]
reverse link MonoBehaviour to Backgroundtile--><g id="link_MonoBehaviour_Backgroundtile"><path codeLine="6" d="M78.55,694.48 C83.81,778.5 106.65,958.08 205,1063.6 C216,1075.4 229.54,1084.94 244.02,1092.65 " fill="none" id="MonoBehaviour-backto-Backgroundtile" style="stroke:#181818;stroke-width:1.0;"/><polygon fill="none" points="71.56,694.85,77.54,674.52,85.54,694.15,71.56,694.85" style="stroke:#181818;stroke-width:1.0;"/></g><!--MD5=[9fcf183d7b7db9c31d4d9e129afd335f]
link Backgroundtile to Sprite--><g id="link_Backgroundtile_Sprite"><path codeLine="7" d="M482.73,1128.69 C538.29,1130.62 600.95,1132.79 640.92,1134.17 " fill="none" id="Backgroundtile-to-Sprite" style="stroke:#181818;stroke-width:1.0;"/><polygon fill="#181818" points="645.62,1134.34,636.7628,1130.0331,640.623,1134.1682,636.4879,1138.0284,645.62,1134.34" style="stroke:#181818;stroke-width:1.0;"/><text fill="#000000" font-family="sans-serif" font-size="13" lengthAdjust="spacing" textLength="69" x="569.9935" y="1149.1707">breakSprite</text></g><!--MD5=[a4522694234bcd4924daf9d31214ec6f]
reverse link MonoBehaviour to CameraScalar--><g id="link_MonoBehaviour_CameraScalar"><path codeLine="13" d="M154.55,681.47 C194.64,698.45 243.45,719.14 283.71,736.21 " fill="none" id="MonoBehaviour-backto-CameraScalar" style="stroke:#181818;stroke-width:1.0;"/><polygon fill="none" points="151.85,687.92,136.17,673.67,157.31,675.03,151.85,687.92" style="stroke:#181818;stroke-width:1.0;"/></g><!--MD5=[2b48ed1cb64280cacd387ac1be2b4fd7]
reverse link MonoBehaviour to FadePanelController--><g id="link_MonoBehaviour_FadePanelController"><path codeLine="17" d="M166.71,648.6 C202.66,648.6 243.85,648.6 279.14,648.6 " fill="none" id="MonoBehaviour-backto-FadePanelController" style="stroke:#181818;stroke-width:1.0;"/><polygon fill="none" points="166.9,655.6,146.9,648.6,166.9,641.6,166.9,655.6" style="stroke:#181818;stroke-width:1.0;"/></g><!--MD5=[19107e104f2d1be9860008928a3e5a70]
link FadePanelController to Animator--><g id="link_FadePanelController_Animator"><path codeLine="18" d="M447.92,660.5 C505.59,663.14 580.54,663.06 629.89,660.01 " fill="none" id="FadePanelController-to-Animator" style="stroke:#181818;stroke-width:1.0;"/><polygon fill="#181818" points="634.87,659.68,625.6264,656.2805,629.8808,660.0088,626.1525,664.2632,634.87,659.68" style="stroke:#181818;stroke-width:1.0;"/><text fill="#000000" font-family="sans-serif" font-size="13" lengthAdjust="spacing" textLength="64" x="563.7809" y="675.4275">panelAnim</text></g><!--MD5=[19107e104f2d1be9860008928a3e5a70]
link FadePanelController to Animator--><g id="link_FadePanelController_Animator"><path codeLine="19" d="M447.92,637.08 C505.59,635.04 580.54,636.09 629.89,639.96 " fill="none" id="FadePanelController-to-Animator-1" style="stroke:#181818;stroke-width:1.0;"/><polygon fill="#181818" points="634.87,640.37,626.2333,635.6364,629.8873,639.9548,625.5689,643.6088,634.87,640.37" style="stroke:#181818;stroke-width:1.0;"/><text fill="#000000" font-family="sans-serif" font-size="13" lengthAdjust="spacing" textLength="89" x="538.9799" y="654.2821">gameInfoAnim</text></g><!--MD5=[f2250e6faaaf3f1048fc511d84e16012]
reverse link MonoBehaviour to FindMatches--><g id="link_MonoBehaviour_FindMatches"><path codeLine="27" d="M83.02,603.18 C98.72,490.59 144.02,202.42 205,129.6 C210.19,123.4 216.03,117.74 222.34,112.56 " fill="none" id="MonoBehaviour-backto-FindMatches" style="stroke:#181818;stroke-width:1.0;"/><polygon fill="none" points="89.96,604.04,80.32,622.9,76.09,602.14,89.96,604.04" style="stroke:#181818;stroke-width:1.0;"/></g><!--MD5=[f3c5566ce49e7a342134c9110aef5549]
link FindMatches to List`1--><g id="link_FindMatches_List`1"><path codeLine="28" d="M363.5,154.32 C363.5,154.32 363.5,127.25 363.5,112.35 " fill="none" id="FindMatches-List`1" style="stroke:#181818;stroke-width:1.0;"/><polygon fill="#181818" points="180.5,112.35,177.3496,121.6814,180.9625,117.3286,185.3153,120.9414,180.5,112.35" style="stroke:#181818;stroke-width:1.0;"/><line style="stroke:#181818;stroke-width:1.0;" x1="180.9625" x2="272" y1="117.3286" y2="120.85"/><polygon fill="none" points="363.5,166.32,367.5,160.32,363.5,154.32,359.5,160.32,363.5,166.32" style="stroke:#181818;stroke-width:1.0;"/><text fill="#000000" font-family="sans-serif" font-size="13" lengthAdjust="spacing" textLength="183" x="168.7766" y="134.1397">currentMatches&lt;GameObject&gt;</text></g><!--MD5=[b13fc95dbe37c6f2e5fa35c0a798ec2b]
link BlankGoal to Sprite--><g id="link_BlankGoal_Sprite"><path codeLine="36" d="M449.58,1223.44 C511.59,1200.01 592.86,1169.29 641.04,1151.08 " fill="none" id="BlankGoal-to-Sprite" style="stroke:#181818;stroke-width:1.0;"/><polygon fill="#181818" points="645.62,1149.35,635.788,1148.7747,640.9401,1151.1103,638.6045,1156.2625,645.62,1149.35" style="stroke:#181818;stroke-width:1.0;"/><text fill="#000000" font-family="sans-serif" font-size="13" lengthAdjust="spacing" textLength="61" x="577.9402" y="1165.3959">goalSprite</text></g><!--MD5=[8b23a23063148371824617c227372754]
reverse link MonoBehaviour to GoalManager--><g id="link_MonoBehaviour_GoalManager"><path codeLine="37" d="M95.15,604.76 C115.5,560.99 152.67,495 205,457.6 C233.2,437.44 270.48,426.96 301.69,421.51 " fill="none" id="MonoBehaviour-backto-GoalManager" style="stroke:#181818;stroke-width:1.0;"/><polygon fill="none" points="101.63,607.41,87.12,622.85,88.83,601.73,101.63,607.41" style="stroke:#181818;stroke-width:1.0;"/></g><!--MD5=[5d2e53d4e263b7246a9763b1b2e0d729]
link GoalManager to GameObject--><g id="link_GoalManager_GameObject"><path codeLine="38" d="M425.34,434.67 C481,439.43 562.99,436.66 619.24,428.18 " fill="none" id="GoalManager-to-GameObject" style="stroke:#181818;stroke-width:1.0;"/><polygon fill="#181818" points="624.13,427.41,614.6208,424.8457,619.1898,428.181,615.8545,432.75,624.13,427.41" style="stroke:#181818;stroke-width:1.0;"/><text fill="#000000" font-family="sans-serif" font-size="13" lengthAdjust="spacing" textLength="65" x="552.626" y="443.8656">goalPrefab</text></g><!--MD5=[5d2e53d4e263b7246a9763b1b2e0d729]
link GoalManager to GameObject--><g id="link_GoalManager_GameObject"><path codeLine="39" d="M425.34,413.49 C481,411.56 562.99,408.72 619.24,406.77 " fill="none" id="GoalManager-to-GameObject-1" style="stroke:#181818;stroke-width:1.0;"/><polygon fill="#181818" points="624.11,406.6,614.9782,402.9107,619.1129,406.7713,615.2523,410.906,624.11,406.6" style="stroke:#181818;stroke-width:1.0;"/><text fill="#000000" font-family="sans-serif" font-size="13" lengthAdjust="spacing" textLength="96" x="521.5626" y="402.9726">goalIntroParent</text></g><!--MD5=[5d2e53d4e263b7246a9763b1b2e0d729]
link GoalManager to GameObject--><g id="link_GoalManager_GameObject"><path codeLine="40" d="M425.34,392.31 C481,383.7 562.99,380.78 619.24,385.37 " fill="none" id="GoalManager-to-GameObject-2" style="stroke:#181818;stroke-width:1.0;"/><polygon fill="#181818" points="624.12,385.8,615.5092,381.0194,619.1396,385.3576,614.8014,388.988,624.12,385.8" style="stroke:#181818;stroke-width:1.0;"/><text fill="#000000" font-family="sans-serif" font-size="13" lengthAdjust="spacing" textLength="101" x="516.3712" y="380.7738">goalGameParent</text></g><!--MD5=[6970026877239f648eb559422e23509e]
reverse link MonoBehaviour to GoalPanel--><g id="link_MonoBehaviour_GoalPanel"><path codeLine="44" d="M83.27,693.74 C95.02,761.41 126.67,888.94 205,961.6 C228.49,983.39 261.4,995.88 291.06,1003.03 " fill="none" id="MonoBehaviour-backto-GoalPanel" style="stroke:#181818;stroke-width:1.0;"/><polygon fill="none" points="76.42,695.21,80.19,674.36,90.24,693.02,76.42,695.21" style="stroke:#181818;stroke-width:1.0;"/></g><!--MD5=[67036b6db5b74695ea6ed2a2bae94f10]
link GoalPanel to Image--><g id="link_GoalPanel_Image"><path codeLine="45" d="M435.64,991.38 C462.89,982.78 494.11,972.35 522,961.6 C562.67,945.92 607.86,925.27 639.82,910.11 " fill="none" id="GoalPanel-to-Image" style="stroke:#181818;stroke-width:1.0;"/><polygon fill="#181818" points="644.26,908,634.4149,908.2713,639.7486,910.1558,637.8641,915.4895,644.26,908" style="stroke:#181818;stroke-width:1.0;"/><text fill="#000000" font-family="sans-serif" font-size="13" lengthAdjust="spacing" textLength="60" x="577.4193" y="924.478">thisImage</text></g><!--MD5=[1f5faa9c38ba941dd95f76328965a90a]
link GoalPanel to Sprite--><g id="link_GoalPanel_Sprite"><path codeLine="46" d="M435.64,1033.81 C462.89,1042.41 494.11,1052.84 522,1063.6 C563.34,1079.54 609.35,1100.61 641.38,1115.83 " fill="none" id="GoalPanel-to-Sprite" style="stroke:#181818;stroke-width:1.0;"/><polygon fill="#181818" points="645.83,1117.95,639.4341,1110.4605,641.3186,1115.7942,635.9849,1117.6787,645.83,1117.95" style="stroke:#181818;stroke-width:1.0;"/><text fill="#000000" font-family="sans-serif" font-size="13" lengthAdjust="spacing" textLength="57" x="581.9616" y="1112.2751">thisSprite</text></g><!--MD5=[db585a913f42c812f2bd94ba87aebc77]
link GoalPanel to TextMeshProUGUI--><g id="link_GoalPanel_TextMeshProUGUI"><path codeLine="47" d="M435.75,1012.6 C484.41,1012.6 549.01,1012.6 599.84,1012.6 " fill="none" id="GoalPanel-to-TextMeshProUGUI" style="stroke:#181818;stroke-width:1.0;"/><polygon fill="#181818" points="604.77,1012.6,595.77,1008.6,599.77,1012.6,595.77,1016.6,604.77,1012.6" style="stroke:#181818;stroke-width:1.0;"/><text fill="#000000" font-family="sans-serif" font-size="13" lengthAdjust="spacing" textLength="48" x="549.9391" y="1027.2302">thisText</text></g><!--MD5=[dc7a6c5d62969bcd7426c9f924ffa848]
reverse link MonoBehaviour to HintManager--><g id="link_MonoBehaviour_HintManager"><path codeLine="52" d="M86.69,603.79 C101.92,543.6 136.98,436.91 205,373.6 C227.6,352.57 258.32,338.68 286.63,329.62 " fill="none" id="MonoBehaviour-backto-HintManager" style="stroke:#181818;stroke-width:1.0;"/><polygon fill="none" points="93.58,605.07,82.15,622.92,79.96,601.84,93.58,605.07" style="stroke:#181818;stroke-width:1.0;"/></g><!--MD5=[f0a7f5d21bc94081faeb6933b66af429]
link HintManager to GameObject--><g id="link_HintManager_GameObject"><path codeLine="53" d="M440.15,346.33 C494.96,364.51 568.18,385.28 619.65,397.1 " fill="none" id="HintManager-to-GameObject" style="stroke:#181818;stroke-width:1.0;"/><polygon fill="#181818" points="624.34,398.17,616.4384,392.2909,619.4621,397.0718,614.6812,400.0955,624.34,398.17" style="stroke:#181818;stroke-width:1.0;"/><text fill="#000000" font-family="sans-serif" font-size="13" lengthAdjust="spacing" textLength="68" x="549.4143" y="412.6508">hintParticle</text></g><!--MD5=[f0a7f5d21bc94081faeb6933b66af429]
link HintManager to GameObject--><g id="link_HintManager_GameObject"><path codeLine="54" d="M440.15,323.58 C497.9,337.37 576.08,360.19 627.73,378.58 " fill="none" id="HintManager-to-GameObject-1" style="stroke:#181818;stroke-width:1.0;"/><polygon fill="#181818" points="632.16,380.17,625.0505,373.3542,627.4565,378.4739,622.3368,380.8798,632.16,380.17" style="stroke:#181818;stroke-width:1.0;"/><text fill="#000000" font-family="sans-serif" font-size="13" lengthAdjust="spacing" textLength="70" x="608.345" y="368.2373">currentHint</text></g><!--MD5=[7b2b69b5100b6127c085b90557c47d04]
reverse link MonoBehaviour to ScoreManager--><g id="link_MonoBehaviour_ScoreManager"><path codeLine="59" d="M96.5,692.27 C117.64,735.13 155.16,799.71 205,839.6 C213.01,846.01 221.78,851.81 230.94,857.04 " fill="none" id="MonoBehaviour-backto-ScoreManager" style="stroke:#181818;stroke-width:1.0;"/><polygon fill="none" points="90.21,695.34,87.98,674.27,102.86,689.35,90.21,695.34" style="stroke:#181818;stroke-width:1.0;"/></g><!--MD5=[2bac30c8c2db142f054f23c4635d409a]
link ScoreManager to TextMeshProUGUI--><g id="link_ScoreManager_TextMeshProUGUI"><path codeLine="60" d="M487.71,944.06 C528.41,958.42 572.39,973.93 608.2,986.57 " fill="none" id="ScoreManager-to-TextMeshProUGUI" style="stroke:#181818;stroke-width:1.0;"/><polygon fill="#181818" points="612.91,988.23,605.7458,981.4717,608.1929,986.5719,603.0928,989.019,612.91,988.23" style="stroke:#181818;stroke-width:1.0;"/><text fill="#000000" font-family="sans-serif" font-size="13" lengthAdjust="spacing" textLength="58" x="540.1534" y="1000.1398">scoreText</text></g><!--MD5=[f940cc313b22901d239795c35dccd0f9]
link ScoreManager to Image--><g id="link_ScoreManager_Image"><path codeLine="61" d="M522.32,895.13 C565.47,893.64 608.72,892.14 639.3,891.08 " fill="none" id="ScoreManager-to-Image" style="stroke:#181818;stroke-width:1.0;"/><polygon fill="#181818" points="644.12,890.91,634.9882,887.2207,639.1229,891.0813,635.2623,895.216,644.12,890.91" style="stroke:#181818;stroke-width:1.0;"/><text fill="#000000" font-family="sans-serif" font-size="13" lengthAdjust="spacing" textLength="52" x="585.5107" y="886.8746">scoreBar</text></g><!--MD5=[93e92d52039a26ac54871c82cfe3d689]
reverse link MonoBehaviour to SoundManager--><g id="link_MonoBehaviour_SoundManager"><path codeLine="67" d="M154.21,615.88 C180.71,604.64 211.07,591.78 240.25,579.41 " fill="none" id="MonoBehaviour-backto-SoundManager" style="stroke:#181818;stroke-width:1.0;"/><polygon fill="none" points="157.31,622.16,136.17,623.52,151.85,609.27,157.31,622.16" style="stroke:#181818;stroke-width:1.0;"/></g><!--MD5=[c23b1bb0548605ceb8da1a5e25ee704f]
link SoundManager to AudioSource--><g id="link_SoundManager_AudioSource"><path codeLine="68" d="M486.8,540.04 C531.72,540.8 580.75,540.14 618.44,538.04 " fill="none" id="SoundManager-to-AudioSource" style="stroke:#181818;stroke-width:1.0;"/><polygon fill="#181818" points="623.35,537.75,614.126,534.2978,618.359,538.0503,614.6065,542.2833,623.35,537.75" style="stroke:#181818;stroke-width:1.0;"/><text fill="#000000" font-family="sans-serif" font-size="13" lengthAdjust="spacing" textLength="108" x="508.6247" y="552.9459">backgroundMusic</text></g><!--MD5=[c23b1bb0548605ceb8da1a5e25ee704f]
link SoundManager to AudioSource--><g id="link_SoundManager_AudioSource"><path codeLine="69" d="M486.8,514.42 C531.72,513.61 580.75,514.32 618.44,516.54 " fill="none" id="SoundManager-to-AudioSource-1" style="stroke:#181818;stroke-width:1.0;"/><polygon fill="#181818" points="623.35,516.85,614.6195,512.2917,618.3599,516.5354,614.1162,520.2759,623.35,516.85" style="stroke:#181818;stroke-width:1.0;"/><text fill="#000000" font-family="sans-serif" font-size="13" lengthAdjust="spacing" textLength="73" x="543.4311" y="530.6761">introSection</text></g><!--MD5=[b7f1d76995fa297816c19309ae70556f]
@startuml
left to right direction
class Backgroundtile {
    + hitPoints : int
    + TakeDamage(damage:int) : void
}
MonoBehaviour <|- - Backgroundtile
Backgroundtile - -> "breakSprite" Sprite
class CameraScalar {
    + cameraOffset : float
    + padding : float = 2
    + yOffset : float = 1
}
MonoBehaviour <|- - CameraScalar
class FadePanelController {
    + OK() : void
}
MonoBehaviour <|- - FadePanelController
FadePanelController - -> "panelAnim" Animator
FadePanelController - -> "gameInfoAnim" Animator
class FindMatches {
    + FindAllMatches() : void
    + MatchPiecesOfColor(color:string) : void
    + CheckBombs() : void
}
class "List`1"<T> {
}
MonoBehaviour <|- - FindMatches
FindMatches o-> "currentMatches<GameObject>" "List`1"
class BlankGoal {
    + numberNeeded : int
    + numberCollected : int
    + matchValue : string
}
class GoalManager {
}
BlankGoal - -> "goalSprite" Sprite
MonoBehaviour <|- - GoalManager
GoalManager - -> "goalPrefab" GameObject
GoalManager - -> "goalIntroParent" GameObject
GoalManager - -> "goalGameParent" GameObject
class GoalPanel {
    + thisString : string
}
MonoBehaviour <|- - GoalPanel
GoalPanel - -> "thisImage" Image
GoalPanel - -> "thisSprite" Sprite
GoalPanel - -> "thisText" TextMeshProUGUI
class HintManager {
    + hintDelay : float
    + DestroyHint() : void
}
MonoBehaviour <|- - HintManager
HintManager - -> "hintParticle" GameObject
HintManager - -> "currentHint" GameObject
class ScoreManager {
    + score : int
    + IncreaseScore(amountToIncrease:int) : void
}
MonoBehaviour <|- - ScoreManager
ScoreManager - -> "scoreText" TextMeshProUGUI
ScoreManager - -> "scoreBar" Image
class SoundManager {
    + Start() : void
    + Update() : void
    + PlayRandomDestroyNoise() : void
}
MonoBehaviour <|- - SoundManager
SoundManager - -> "backgroundMusic" AudioSource
SoundManager - -> "introSection" AudioSource

newpage
top to bottom direction
enum GameState {
    wait,
    move,
}
enum TileKind {
    Breakable,
    Blank,
    Normal,
}
class TileType {
    + x : int
    + y : int
}
class Board {
    + width : int
    + height : int
    + offSet : int
    + basePieceVal : int = 10
    + refillDelay : float = 0.5f
    + GenerateBlankSpaces() : void
    + GenerateBreakableTiles() : void
    + DestroyMatches() : void
    + SwitchAndCheck(column:int, row:int, direction:Vector2Int) : bool
}
TileType - -> "tileKind" TileKind
MonoBehaviour <|- - Board
Board o-> "currentState" GameState
Board - -> "tilePrefab" GameObject
Board - -> "breakableTilePrefab" GameObject
Board - -> "destroyEffect" GameObject
Board - -> "currentDot" Dot
class Dot {
    + column : int
    + row : int
    + previousColumn : int
    + previousRow : int
    + targetX : int
    + targetY : int
    + isMatched : bool = false
    + swipeAngle : float = 0
    + swipeResist : float = 1f
    + isColorBomb : bool
    + isColumnBomb : bool
    + isRowBomb : bool
    + isAdjacentBomb : bool
    + CheckMoveCo() : IEnumerator
    + MakeRowBomb() : void
    + MakeColumnBomb() : void
    + MakeColorBomb() : void
    + MakeAdjacentBomb() : void
}
MonoBehaviour <|- - Dot
Dot - -> "otherDot" GameObject
Dot - -> "adjacentMarker" GameObject
Dot - -> "rowArrow" GameObject
Dot - -> "columnArrow" GameObject
Dot - -> "colorBomb" GameObject
@enduml

PlantUML version 1.2022.7(Tue Aug 23 00:01:30 ICT 2022)
(GPL source distribution)
Java Runtime: OpenJDK Runtime Environment
JVM: OpenJDK 64-Bit Server VM
Default Encoding: UTF-8
Language: en
Country: US
--></g></svg>